<svg width="25" height="24" viewBox="0 0 25 24" fill="none" xmlns="http://www.w3.org/2000/svg">
<g filter="url(#filter0_d_117_437)">
<path d="M12.5 0.5625C15.4011 0.5625 18.1833 1.71492 20.2346 3.76625C22.2859 5.81757 23.4383 8.59977 23.4383 11.5008C23.4383 14.4018 22.2859 17.184 20.2346 19.2353C18.1833 21.2866 15.4011 22.4391 12.5 22.4391C9.59904 22.4391 6.81684 21.2866 4.76552 19.2353C2.71419 17.184 1.56177 14.4018 1.56177 11.5008C1.56177 8.59977 2.71419 5.81757 4.76552 3.76625C6.81684 1.71492 9.59904 0.5625 12.5 0.5625ZM14.1407 7.27813C14.9532 7.27813 15.6125 6.71406 15.6125 5.87813C15.6125 5.04219 14.9516 4.47813 14.1407 4.47813C13.3282 4.47813 12.6719 5.04219 12.6719 5.87813C12.6719 6.71406 13.3282 7.27813 14.1407 7.27813ZM14.4266 16.0703C14.4266 15.9031 14.4844 15.4688 14.4516 15.2219L13.1672 16.7C12.9016 16.9797 12.5688 17.1734 12.4125 17.1219C12.3417 17.0958 12.2824 17.0453 12.2455 16.9794C12.2085 16.9135 12.1963 16.8366 12.211 16.7625L14.3516 10C14.5266 9.14219 14.0454 8.35938 13.0251 8.25938C11.9485 8.25938 10.3641 9.35156 9.40005 10.7375C9.40005 10.9031 9.3688 11.3156 9.40161 11.5625L10.6844 10.0828C10.95 9.80625 11.2594 9.61094 11.4157 9.66406C11.4927 9.69169 11.5557 9.7484 11.5914 9.82202C11.627 9.89564 11.6324 9.98029 11.6063 10.0578L9.48442 16.7875C9.23911 17.575 9.70317 18.3469 10.8282 18.5219C12.4844 18.5219 13.4625 17.4563 14.4282 16.0703H14.4266Z" fill="#62656C"/>
</g>
<defs>
<filter id="filter0_d_117_437" x="-2.43823" y="0.5625" width="29.8766" height="29.8766" filterUnits="userSpaceOnUse" color-interpolation-filters="sRGB">
<feFlood flood-opacity="0" result="BackgroundImageFix"/>
<feColorMatrix in="SourceAlpha" type="matrix" values="0 0 0 0 0 0 0 0 0 0 0 0 0 0 0 0 0 0 127 0" result="hardAlpha"/>

<feComposite in2="hardAlpha" operator="out"/>
<feColorMatrix type="matrix" values="0 0 0 0 0 0 0 0 0 0 0 0 0 0 0 0 0 0 0.25 0"/>
<feBlend mode="normal" in="SourceGraphic" in2="effect1_dropShadow_117_437" result="shape"/>
</filter>
</defs>
</svg>
