<svg width="34" height="34" viewBox="0 0 34 34" fill="none" xmlns="http://www.w3.org/2000/svg">
<path d="M17 29C12.8334 29 9.15004 26.8666 7.00004 23.6666C7.05004 20.3333 13.6667 18.5 17 18.5C20.3334 18.5 26.95 20.3333 27 23.6666C25.8982 25.3073 24.4098 26.6519 22.666 27.5819C20.9221 28.512 18.9764 28.999 17 29ZM17 5.33331C18.3261 5.33331 19.5979 5.8601 20.5356 6.79778C21.4733 7.73546 22 9.00723 22 10.3333C22 11.6594 21.4733 12.9312 20.5356 13.8688C19.5979 14.8065 18.3261 15.3333 17 15.3333C15.674 15.3333 14.4022 14.8065 13.4645 13.8688C12.5268 12.9312 12 11.6594 12 10.3333C12 9.00723 12.5268 7.73546 13.4645 6.79778C14.4022 5.8601 15.674 5.33331 17 5.33331ZM17 0.333313C14.8113 0.333313 12.6441 0.764409 10.622 1.60199C8.59989 2.43957 6.76257 3.66722 5.21493 5.21487C2.08932 8.34047 0.333374 12.5797 0.333374 17C0.333374 21.4203 2.08932 25.6595 5.21493 28.7851C6.76257 30.3327 8.59989 31.5604 10.622 32.398C12.6441 33.2355 14.8113 33.6666 17 33.6666C21.4203 33.6666 25.6595 31.9107 28.7852 28.7851C31.9108 25.6595 33.6667 21.4203 33.6667 17C33.6667 7.78331 26.1667 0.333313 17 0.333313Z" fill="#62656C"/>
</svg>
